<?xml version="1.0" encoding="UTF-8"?>
<svg xmlns="http://www.w3.org/2000/svg" viewBox="0 0 429.96 476.89">
  <defs>
    <style>
      .cls-1 {
        stroke: #020202;
      }

      .cls-1, .cls-2 {
        fill: none;
        stroke-miterlimit: 10;
      }

      .cls-2 {
        stroke: #280e0e;
      }
    </style>
  </defs>
  <g id="Arms">
    <g>
      <path class="cls-2" d="M260.12,474.12c1.28.22,2.35.76,3.08.47,1.53-.62,3.21-.9,4.3-2.63,1.44-2.29,1.8-3.6.42-5.91-.37-.61-1.02-1.23-1.03-1.85-.04-2.64-1.85-3.75-3.83-4.72-2.42-1.18-4.48-2.8-6.03-4.99-2.27-3.19-4.54-6.38-6.67-9.66-.56-.87-.68-2.08-.83-3.16-.23-1.61-.35-3.23-.38-4.86-.04-2.76-.34-5.59.21-8.24,1.86-8.83,4.04-17.59,6.18-26.36,1.79-7.31,3.32-14.67,4.05-22.14.95-9.78.1-19.45-2.28-29-.53-2.12-.92-4.28-1.03-6.46-.22-4.13.12-8.29.38-12.42.11-1.79.34-3.57.75-5.32.88-3.8,2.06-7.52,2.97-11.31,1.47-6.06,2.47-12.21,2.96-18.42.57-7.33,1.16-14.66.86-22.03-.14-3.43-.31-6.86-.53-10.29-.28-4.46-.56-8.93-.97-13.38-.22-2.39-.57-4.76-1.05-7.1-1.13-5.55-2.45-11.07-3.6-16.62-1.3-6.23-2.52-12.48-3.72-18.73-.18-.93-.14-1.88.04-2.8,1.2-6.05.55-12.02-.7-17.97-.72-3.45-1.18-6.95-.73-10.48.39-3.09.84-6.18,1.38-9.24.94-5.29,2.6-10.38,4.36-15.44.12-.34.38-.62.73-1.16.48.88.87,1.43,1.08,2.11.94,3.08,1.94,6.14,3.36,9.03,3.39,6.94,5.34,14.11,5.18,21.76-.02.87.1,2.28.28,3.13.62,2.91.51,5.9,1.35,8.81.39,1.34.45,2.83,1.23,4.03,1.62,2.47,1.39,5.74,3.49,7.99.05.05.02.16.05.23.39,1.21.65,2.47,1.2,3.6,3.43,7.07,6.48,14.28,8.75,21.82.49,1.63.5,3.39-.13,4.97-1.93,4.85-1.8,9.75-.47,14.73.6,2.23,1,4.52,1.24,6.82.27,2.62.18,5.27.42,7.89.15,1.66.51,3.32,1,4.91.15.49,1.03,1.03,1.61,1.06.89.05,1.42-.68,1.41-1.6,0-.63-.18-1.26-.22-1.9-.17-2.22-.37-4.44-.43-6.67-.03-1.1.24-2.19,1.23-2.83,1.1.38.85,1.16.88,1.85.07,1.75.1,3.51.28,5.25.25,2.38.58,4.75.98,7.12.21,1.25.53,2.51,1,3.68.19.46,1.04,1.06,1.42.95.56-.15,1.03-.82,1.4-1.37.19-.28.11-.78.07-1.17-.2-2.06-.48-4.12-.63-6.19-.18-2.41-.26-4.83-.38-7.24.4.17.55.37.58.58.78,4.97,1.55,9.94,2.33,14.9.11.7.15,1.5.53,2.05.35.52,1.16,1.13,1.65,1.05.65-.11,1.29-.79,1.75-1.38.24-.31.16-.93.11-1.39-.71-5.86-1.44-11.72-2.15-17.58-.03-.21.12-.44.24-.86.37.3.81.47.89.75.77,2.51,1.6,5.02,2.16,7.58.55,2.49.72,5.06,1.21,7.57.28,1.46,1.29,2.2,2.29,1.95,1.16-.3,1.42-1.17,1.32-2.23-.38-3.81-.7-7.63-1.18-11.43-.22-1.73-.95-3.41-1.09-5.14-.28-3.33-.4-6.69-.37-10.04,0-1.15.35-2.44.94-3.44.88-1.51,2.69-1.64,3.9-.39.89.92,1.67,1.94,2.52,2.91,1.27,1.44,2.87,2.29,4.75,2.57,1.95.29,3.41-.44,4.35-2.19-.39-.33-.75-.82-1.22-1.02-2.46-1.06-4.26-2.88-5.65-5.05-2.97-4.63-6.78-8.07-12.15-9.66-2.41-.71-4.22-2.69-4.8-5.13s-1.27-5.12-1.59-7.72c-.85-6.89-1.59-13.8-2.24-20.71-.37-3.9-.44-7.82-.69-11.72-.31-4.66-1.29-9.18-3.25-13.44-.77-1.67-1.59-3.32-2.5-4.91-2.24-3.92-3.21-8.24-3.34-12.64-.24-7.9-2.01-15.5-3.68-23.15-.54-2.48-1.16-4.96-.37-7.55.49-1.59.76-3.26,1.02-4.92,1.44-9.33.12-18.17-4.9-26.23-.95-1.53-2.96-3.63-4.45-4.63-2.94-1.96-6.23-3.23-9.78-3.71-2.88-.39-5.59-1.29-8.16-2.66-3.59-1.92-7.24-3.75-10.82-5.7-2.53-1.37-5.07-2.74-7.46-4.32-2.53-1.67-3.97-4.09-4.08-7.22-.06-1.84-.27-3.67-.34-5.5-.03-.87-.04-1.8.23-2.6.96-2.82,1.57-5.69,1.66-8.67,0-.28.24-.56.4-.92,1.2-.01,2.57.26,3.14-1.14,1.2-2.95,2.61-5.86,3.4-8.93.88-3.44.24-4.06-3.35-4.54.18-.77.34-1.52.53-2.26.72-2.86,1.37-5.75,2.19-8.59.62-2.16.49-4.26-.09-6.37-.77-2.84-1.03-3.94-2.32-6.76-1.17-2.56-2.71-5.19-4.02-6.2-5.42-4.19-9.3-5.57-15.37-5.46-.07,0-.14,0-.22,0-10.87.28-20.26,7.82-23.22,18.29-.12.41-.23.83-.34,1.25-.24.9-.28,1.84-.12,2.75.46,2.59,1.06,5.15,1.62,7.72.42,1.92.86,3.83,1.3,5.77-3.5.08-4.23.7-3.39,3.98.82,3.22,2.24,6.3,3.46,9.41.31.79.99,1.21,1.93,1.1.44-.05.9.07,1.13.09.75,3.45,1.48,6.7,2.16,9.96.06.3.09.6.09.91-.02,2.25-.19,4.5-.2,6.75-.02,2.68-1.15,4.81-3.23,6.39-1.59,1.21-3.23,2.39-4.99,3.32-6.43,3.4-12.91,6.7-19.39,10.01-.4.21-.95.42-1.34.32-1.6-.42-2.95-.02-4.32.83-.64.4-1.51.49-2.29.61-3.07.47-5.39,1.3-6.98,4.13-.31.54-1.01,1.42-1.51,1.81-1.07.84-1.56,1.95-1.93,3.21-.31,1.04-.89,2-1.36,2.99-.31.64-.77,1.24-.98,1.91-2.21,7.17-2.76,14.48-.83,21.75.89,3.32.83,6.38.07,9.64-1.66,7.08-3.35,14.18-3.59,21.48-.21,6.22-1.86,11.93-4.88,17.35-2.31,4.15-3.83,8.6-4.14,13.41-.51,7.74-.96,15.48-1.65,23.2-.54,5.96-1.19,11.91-2.67,17.75-.9,3.56-2.84,5.8-6.31,6.79-3.78,1.08-6.61,3.48-8.93,6.54-.82,1.08-1.49,2.31-2.43,3.27-1.39,1.41-2.93,2.67-4.46,3.93-.71.58-2.16.82-1.77,1.9.28.76,1.49,1.32,2.41,1.65.69.25,1.59.13,2.34-.05,1.75-.43,3.23-1.36,4.39-2.76.77-.92,1.5-1.88,2.35-2.72,1.25-1.25,2.25-1.21,3.5.06,1.23,1.25,1.34,2.81,1.26,4.46-.13,2.95-.17,5.89-.28,8.84-.03.68-.2,1.78-.42,2.42-1.62,4.83-1.11,9.94-1.91,14.87-.17,1.03.17,1.97,1.37,2.16,1.11.18,1.86-.48,2.23-1.44.28-.73.38-1.55.49-2.34.55-4.2,1.08-8.4,2.63-12.39.25-.63.14-1.49,1.2-1.57.09.21.27.43.25.61-.55,3.62-1.2,7.24-1.67,10.87-.32,2.45-.45,4.94-.54,7.41-.05,1.35.67,2.06,1.81,2.11,1.15.05,1.75-.63,2-1.68.13-.55.26-2.12.31-2.82q.33-4.26,1.4-9.74c.34-1.75.73-3,1.03-4.37.34.3.42.58.4.86-.2,2.55-.43,5.1-.63,7.65-.15,1.91-.27,3.83-.39,5.74-.05.8.19,1.45,1.01,1.73.73.25,1.54-.13,1.86-.83s.6-1.4.68-2.12c.49-4.44.91-8.89,1.36-13.33.08-.82.22-1.63.33-2.47,1.64.16,1.8,1.27,1.83,2.13.08,2.46-.03,4.93-.1,7.39-.02.55-.22,1.1-.26,1.65-.07.91.33,1.59,1.24,1.78.91.19,1.54-.3,1.88-1.12.15-.36.26-.76.29-1.15.33-3.6.81-7.19.84-10.8.02-2.06.35-4.1.95-6.07,1.72-5.63,1.9-11.25-.22-16.82-.47-1.23-.53-2.58-.15-3.83,1.72-5.66,3.62-11.25,6.2-16.6,1.64-3.38,3.26-6.78,4.68-10.25,1.49-3.67,2.85-7.4,4.06-11.17,1.43-4.46,1.66-9.1,1.51-13.76-.16-4.88.91-9.52,2.61-14.05,1.99-5.3,3.99-10.61,6.02-15.9.19-.51.61-.93,1.11-1.68,2.81,7.83,4.8,15.35,6.04,23.12.81,5.09.39,9.96-.72,14.91-.9,3.98-1.44,8.08-.94,12.15.46,3.79.45,7.45-.33,11.19-1.3,6.25-2.7,12.48-3.84,18.75-.8,4.38-2.1,8.68-2.73,13.07-.74,5.13-1.04,10.32-1.62,15.47-1.08,9.49-.86,19-.61,28.51.09,3.33.13,6.71,1.43,9.91.34.83.12,1.89.15,2.84.06,1.66-.08,3.36.21,4.97.42,2.34,1.45,4.6,1.67,6.95.31,3.47,1.27,6.74,2.27,10.01,1.29,4.23,1.9,8.64,1.73,13.05-.08,2.05-.06,4.13.11,6.17.23,2.71-.08,5.33-.73,7.94-1.46,5.86-2.34,11.86-2.71,17.89-.3,4.97-.21,9.94.63,14.81,1.2,6.96,2.7,13.88,4.23,20.78,1.59,7.17,3.39,14.3,5.07,21.45.93,3.98,1.62,7.98.68,12.09-.28,1.22-.26,2.55-.17,3.82.11,1.45-.3,2.66-1.09,3.83-1.39,2.05-2.72,4.14-4.12,6.19-2.33,3.39-4.94,6.49-8.82,8.25-.78.36-1.47.96-2.12,1.55-.39.36-.86.89-.88,1.36-.06,1.63-1.13,2.78-1.64,4.18-.44,1.2-.73,2.78-.31,3.9.46,1.22,1.64,2.46,2.82,3.03,1.55.75,3.37,1.68,5.08.3.34.2.57.29.74.44,2.67,2.33,4.08,2.42,7.01.48,3.74-2.48,6.86-5.44,8.42-9.83,1.06-2.98,3.27-5.07,5.95-6.67,1.03-.62,2.14-1.13,3.06-1.88,2.37-1.91,3.85-4.11,2.84-7.47-.98-3.29-1.4-6.68-1.07-10.17.27-2.86-.05-5.71-.72-8.56-.53-2.22-.68-4.58-.67-6.87,0-2.71.4-5.41.54-8.12.3-5.99.47-11.98.86-17.96.13-1.96.48-4.02,1.24-5.81,1.92-4.52,2.77-9.22,2.45-14.04-.32-4.85-1.02-9.68-1.76-14.48-1.31-8.46-1.93-6.39.6-15,1.06-3.59,2.34-7.21,2.73-10.89.66-6.43.71-12.91,1.01-19.38.28-6.07.67-12.14,1.96-18.09,1.15-5.3,2.54-10.55,3.74-15.84,1.54-6.8,2.82-13.62,1.89-20.65-.07-.55-.11-1.13-.03-1.67.05-.35.3-.95.51-.97.93-.1,1.94-.22,2.79.06.38.13.59,1.16.65,1.8.07.78-.15,1.59-.16,2.39-.03,2.39-.18,4.8,0,7.18.51,6.64,1.99,13.13,3.76,19.51,2.59,9.33,3.89,18.96,4.02,28.64.06,4.79.32,9.59.57,14.38.29,5.57,2.21,10.78,3.82,16.04.68,2.22,1.4,4.4.93,6.8-.64,3.21-1.22,6.43-1.76,9.66-.83,4.98-1.36,9.99-.96,15.04.25,3.11.78,6.17,2.16,9.04,1.08,2.25,1.51,4.68,1.62,7.19.33,7.43.76,14.85,1.16,22.27.17,3.12.42,6.25-.4,9.3-1.05,3.92-1.02,7.89-.87,11.9.05,1.51-.32,3.03-.53,4.54-.09.61-.21,1.22-.42,1.81-1.52,4.31.52,7.68,4.24,9.48,3.85,1.87,6.65,4.74,8.17,8.71,1.68,4.4,5.08,7.08,8.93,9.34,2.06,1.21,3.74.9,5.4-.77.28-.28.54-.57.72-.77Z"/>
      <path class="cls-1" d="M282.01,124.77c1.24-.44,3.11-1.56,4.38-1.84,7.32-1.66,13.42-5.68,19.31-10.04,2.29-1.69,4.26-3.79,6.55-5.47,5.19-3.8,10.33-7.7,15.78-11.1,7.32-4.57,14.9-8.71,22.38-13.03,5.34-3.08,10.25-6.78,14.96-10.72,4.48-3.75,8.83-7.64,13.15-11.58,4.21-3.84,8.32-7.78,12.42-11.74,2.38-2.31,4.82-4.45,8.11-5.4,5.59-1.63,10.08-4.85,13.7-9.39.94-1.18,2.06-2.33,3.32-3.14,3.2-2.05,6.54-3.88,9.8-5.84,1-.6,1.99-1.25,2.87-2,.62-.53,1.02-1.32.42-2.13-.51-.69-1.17-.33-1.79-.08-3.86,1.56-7.72,3.11-11.58,4.67-.73.3-1.46.8-2.25-.1.22-1.17.93-2.01,1.9-2.72,2.31-1.67,4.66-3.3,6.88-5.08,1.93-1.55,3.75-3.26,5.53-4.97.72-.69,1.51-1.54.86-2.69-.42-.74-1.45-.59-2.94.31-2.5,1.52-5,3.05-7.52,4.54-.64.38-1.36.64-2.04.95-.12-.15-.24-.3-.35-.45.63-.84,1.19-1.76,1.91-2.51,1.52-1.58,3.19-3.01,4.66-4.63.87-.95,1.61-2.08,2.17-3.25.46-.96.25-1.9-.76-2.01-2.54,1.91-4.83,3.7-7.19,5.39-2.36,1.69-4.24,4.03-7.12,5.28-.12-.41.14-.59.27-.84,1.19-2.21,2.78-4.08,4.63-5.79,1.33-1.23,2.5-2.65,3.59-4.1.49-.65,1.06-1.63.26-2.4-.83-.81-1.63-.06-2.31.46-1.45,1.11-2.82,2.33-4.3,3.4-2.96,2.16-5.82,4.4-7.99,7.42-.93,1.3-2.01,2.53-3.17,3.63-1.34,1.27-2.67,2.63-4.93,3.4.05-.97-.02-1.58.12-2.15.32-1.35.76-2.67,1.1-4.02.46-1.83.43-3.66-.46-5.34-.3-.57-.96-1.21-1.54-1.3-.85-.14-1.08.76-1.33,1.47-1.48,4.19-2.95,8.39-4.51,12.56-.47,1.26-.78,2.47-.68,3.83.13,1.82.12,3.65.18,5.47.06,2.03-.61,3.73-2.25,4.99-.81.62-1.6,1.28-2.43,1.87-3.04,2.15-6.18,4.18-9.14,6.44-3.86,2.95-8.06,5.31-12.4,7.44-6.63,3.26-13.3,6.44-19.97,9.63-6.37,3.05-12.28,6.73-17.26,11.84-3.14,3.22-6.77,5.71-11.12,7.22-6.44,2.24-12.56,5.2-18.41,8.73-2.68,1.62-5.52,2.97-8.65,3.65-1.27.28-2.07.14-3.42.27-.65.07-1.6-.02-2.62.11-3.6.46-2.94.9-6.45,1.2M160.36,94.12c-3.51-.3-5.68-1.33-9.23-2.08-.75-.16-2.75-.44-4.39-.65-1.35-.17-4.37-1.09-5.64-1.37-3.13-.68-3.92-.53-6.6-2.14-5.86-3.53-11.97-6.49-18.41-8.73-4.35-1.51-7.98-4-11.12-7.22-4.98-5.11-10.89-8.79-17.26-11.84-6.66-3.19-13.33-6.38-19.97-9.63-4.34-2.13-8.54-4.49-12.4-7.44-2.96-2.26-6.1-4.29-9.14-6.44-.83-.59-1.62-1.25-2.43-1.87-1.64-1.26-2.31-2.97-2.25-4.99.05-1.82.04-3.65.18-5.47.1-1.36-.21-2.57-.68-3.83-1.56-4.17-3.03-8.37-4.51-12.56-.25-.71-.48-1.61-1.33-1.47-.58.09-1.23.74-1.54,1.3-.89,1.68-.93,3.51-.46,5.34.34,1.35.78,2.67,1.1,4.02.13.56.07,1.18.12,2.15-2.26-.77-3.6-2.13-4.93-3.4-1.16-1.11-2.23-2.33-3.17-3.63-2.17-3.02-5.03-5.26-7.99-7.42-1.48-1.08-2.85-2.29-4.3-3.4-.68-.52-1.48-1.27-2.31-.46-.79.77-.22,1.75.26,2.4,1.09,1.45,2.26,2.87,3.59,4.1,1.84,1.71,3.43,3.58,4.63,5.79.13.25.39.43.27.84-2.89-1.25-4.76-3.59-7.12-5.28-2.36-1.69-4.65-3.48-7.19-5.39-1.01.11-1.22,1.05-.76,2.01.56,1.16,1.3,2.29,2.17,3.25,1.47,1.62,3.14,3.05,4.66,4.63.72.75,1.93,1.5,2.79,2.32,6.63,5.38,0,1.97-.12,2.12-.68-.31-2.64-1.59-3.29-1.97-2.52-1.49-4.88-3.49-7.39-5-1.48-.9-2.52-1.04-2.94-.31-.65,1.14.14,2,.86,2.69,1.79,1.72,3.6,3.42,5.53,4.97,2.22,1.78,4.57,3.41,6.88,5.08.98.71,1.69,1.55,1.9,2.72-.79.9-1.51.4-2.25.1-3.86-1.56-7.72-3.11-11.58-4.67-.62-.25-1.27-.61-1.79.08-.6.81-.2,1.6.42,2.13.88.75,1.87,1.4,2.87,2,3.26,1.96,6.6,3.79,9.8,5.84,1.26.81,2.38,1.96,3.32,3.14,3.62,4.54,8.11,7.77,13.7,9.39,3.29.96,5.72,3.1,8.11,5.4,4.09,3.96,8.21,7.9,12.42,11.74,4.31,3.94,8.67,7.83,13.15,11.58,4.71,3.94,9.62,7.64,14.96,10.72,7.47,4.32,15.06,8.46,22.38,13.03,5.45,3.4,10.59,7.3,15.78,11.1,2.29,1.68,4.27,3.78,6.55,5.47,5.9,4.36,11.99,8.38,19.31,10.04,1.27.29,8.95,2.42,10.2,2.86"/>
    </g>
  </g>
  <g id="Interaction_x5F_Head">
    <ellipse class="cls-2" cx="217.84" cy="19.6" rx="14.21" ry="9.32"/>
    <circle class="cls-2" cx="139.13" cy="249.54" r="5.63"/>
    <circle class="cls-2" cx="295.94" cy="249.18" r="5.63"/>
    <circle class="cls-2" cx="235.81" cy="136.31" r="17.97"/>
    <circle class="cls-2" cx="27.77" cy="27.3" r="5.63"/>
    <circle class="cls-2" cx="403.44" cy="27.3" r="5.63"/>
  </g>
</svg>